<?xml version="1.0" standalone="no"?><!DOCTYPE svg PUBLIC "-//W3C//DTD SVG 1.1//EN" "http://www.w3.org/Graphics/SVG/1.1/DTD/svg11.dtd"><svg t="1531815245192" class="icon" style="" viewBox="0 0 1024 1024" version="1.1" xmlns="http://www.w3.org/2000/svg" p-id="2272" xmlns:xlink="http://www.w3.org/1999/xlink" width="200" height="200"><defs><style type="text/css"></style></defs><path d="M640 85.333333a42.666667 42.666667 0 0 0-42.666667 42.666667v128h-170.666666c-47.36 0-85.333333 37.973333-85.333334 85.333333v512c0 47.36 37.973333 85.333333 85.333334 85.333334h213.333333c47.36 0 85.333333-37.973333 85.333333-85.333334V341.333333c0-31.573333-17.066667-58.88-42.666666-73.386666V128a42.666667 42.666667 0 0 0-42.666667-42.666667m-213.333333 256h213.333333v213.333334h-213.333333V341.333333m0 298.666667h42.666666v42.666667h-42.666666v-42.666667m85.333333 0h42.666667v42.666667h-42.666667v-42.666667m85.333333 0h42.666667v42.666667h-42.666667v-42.666667m-170.666666 85.333333h42.666666v42.666667h-42.666666v-42.666667m85.333333 0h42.666667v42.666667h-42.666667v-42.666667m85.333333 0h42.666667v42.666667h-42.666667v-42.666667m-170.666666 85.333334h42.666666v42.666666h-42.666666v-42.666666m85.333333 0h42.666667v42.666666h-42.666667v-42.666666m85.333333 0h42.666667v42.666666h-42.666667v-42.666666z" fill="" p-id="2273"></path></svg>